<mxfile host="app.diagrams.net" modified="2022-04-04T16:50:30.852Z" agent="5.0 (Windows NT 10.0; Win64; x64) AppleWebKit/537.36 (KHTML, like Gecko) Chrome/98.0.4758.119 YaBrowser/22.3.0.2430 Yowser/2.5 Safari/537.36" etag="VRWc3yD7diaskeg7CWE4" version="17.4.0" type="github">
  <diagram id="C5RBs43oDa-KdzZeNtuy" name="Page-1">
    <mxGraphModel dx="944" dy="515" grid="1" gridSize="10" guides="1" tooltips="1" connect="1" arrows="1" fold="1" page="1" pageScale="1" pageWidth="827" pageHeight="1169" math="0" shadow="0">
      <root>
        <mxCell id="WIyWlLk6GJQsqaUBKTNV-0" />
        <mxCell id="WIyWlLk6GJQsqaUBKTNV-1" parent="WIyWlLk6GJQsqaUBKTNV-0" />
        <mxCell id="s-sF-N-EIKHxKrZ4D1PO-0" value="UserListResource" style="swimlane;fontStyle=0;childLayout=stackLayout;horizontal=1;startSize=26;horizontalStack=0;resizeParent=1;resizeParentMax=0;resizeLast=0;collapsible=1;marginBottom=0;align=center;fontSize=15;" vertex="1" parent="WIyWlLk6GJQsqaUBKTNV-1">
          <mxGeometry x="201" y="30" width="210" height="208" as="geometry" />
        </mxCell>
        <mxCell id="s-sF-N-EIKHxKrZ4D1PO-10" value="Ссылка:&#xa;api/v1/users" style="text;strokeColor=none;fillColor=none;spacingLeft=4;spacingRight=4;overflow=hidden;rotatable=0;points=[[0,0.5],[1,0.5]];portConstraint=eastwest;fontSize=15;fontColor=#FF0000;" vertex="1" parent="s-sF-N-EIKHxKrZ4D1PO-0">
          <mxGeometry y="26" width="210" height="54" as="geometry" />
        </mxCell>
        <mxCell id="s-sF-N-EIKHxKrZ4D1PO-11" value="" style="line;strokeWidth=1;rotatable=0;dashed=0;labelPosition=right;align=left;verticalAlign=middle;spacingTop=0;spacingLeft=6;points=[];portConstraint=eastwest;fontSize=15;" vertex="1" parent="s-sF-N-EIKHxKrZ4D1PO-0">
          <mxGeometry y="80" width="210" height="10" as="geometry" />
        </mxCell>
        <mxCell id="s-sF-N-EIKHxKrZ4D1PO-1" value="GET - Получение всех &#xa;пользователей" style="text;strokeColor=none;fillColor=none;spacingLeft=4;spacingRight=4;overflow=hidden;rotatable=0;points=[[0,0.5],[1,0.5]];portConstraint=eastwest;fontSize=15;" vertex="1" parent="s-sF-N-EIKHxKrZ4D1PO-0">
          <mxGeometry y="90" width="210" height="54" as="geometry" />
        </mxCell>
        <mxCell id="s-sF-N-EIKHxKrZ4D1PO-5" value="" style="line;strokeWidth=1;rotatable=0;dashed=0;labelPosition=right;align=left;verticalAlign=middle;spacingTop=0;spacingLeft=6;points=[];portConstraint=eastwest;fontSize=15;" vertex="1" parent="s-sF-N-EIKHxKrZ4D1PO-0">
          <mxGeometry y="144" width="210" height="10" as="geometry" />
        </mxCell>
        <mxCell id="s-sF-N-EIKHxKrZ4D1PO-4" value="POST - Добавление &#xa;пользователя" style="text;strokeColor=none;fillColor=none;spacingLeft=4;spacingRight=4;overflow=hidden;rotatable=0;points=[[0,0.5],[1,0.5]];portConstraint=eastwest;fontSize=15;" vertex="1" parent="s-sF-N-EIKHxKrZ4D1PO-0">
          <mxGeometry y="154" width="210" height="54" as="geometry" />
        </mxCell>
        <mxCell id="s-sF-N-EIKHxKrZ4D1PO-6" value="UserResource" style="swimlane;fontStyle=0;childLayout=stackLayout;horizontal=1;startSize=26;horizontalStack=0;resizeParent=1;resizeParentMax=0;resizeLast=0;collapsible=1;marginBottom=0;align=center;fontSize=15;" vertex="1" parent="WIyWlLk6GJQsqaUBKTNV-1">
          <mxGeometry x="1" y="30" width="200" height="350" as="geometry" />
        </mxCell>
        <mxCell id="s-sF-N-EIKHxKrZ4D1PO-12" value="Ссылка:&#xa;api/v1/user/&lt;id:int&gt;" style="text;strokeColor=none;fillColor=none;spacingLeft=4;spacingRight=4;overflow=hidden;rotatable=0;points=[[0,0.5],[1,0.5]];portConstraint=eastwest;fontSize=15;fontColor=#FF0000;" vertex="1" parent="s-sF-N-EIKHxKrZ4D1PO-6">
          <mxGeometry y="26" width="200" height="54" as="geometry" />
        </mxCell>
        <mxCell id="s-sF-N-EIKHxKrZ4D1PO-13" value="" style="line;strokeWidth=1;rotatable=0;dashed=0;labelPosition=right;align=left;verticalAlign=middle;spacingTop=0;spacingLeft=6;points=[];portConstraint=eastwest;fontSize=15;" vertex="1" parent="s-sF-N-EIKHxKrZ4D1PO-6">
          <mxGeometry y="80" width="200" height="10" as="geometry" />
        </mxCell>
        <mxCell id="s-sF-N-EIKHxKrZ4D1PO-7" value="GET - Получение &#xa;пользователя по id" style="text;strokeColor=none;fillColor=none;spacingLeft=4;spacingRight=4;overflow=hidden;rotatable=0;points=[[0,0.5],[1,0.5]];portConstraint=eastwest;fontSize=15;" vertex="1" parent="s-sF-N-EIKHxKrZ4D1PO-6">
          <mxGeometry y="90" width="200" height="54" as="geometry" />
        </mxCell>
        <mxCell id="s-sF-N-EIKHxKrZ4D1PO-8" value="" style="line;strokeWidth=1;rotatable=0;dashed=0;labelPosition=right;align=left;verticalAlign=middle;spacingTop=0;spacingLeft=6;points=[];portConstraint=eastwest;fontSize=15;" vertex="1" parent="s-sF-N-EIKHxKrZ4D1PO-6">
          <mxGeometry y="144" width="200" height="10" as="geometry" />
        </mxCell>
        <mxCell id="s-sF-N-EIKHxKrZ4D1PO-19" value="PUT - Обновляет &#xa;пользователю поля, &#xa;переданные в JSON" style="text;strokeColor=none;fillColor=none;spacingLeft=4;spacingRight=4;overflow=hidden;rotatable=0;points=[[0,0.5],[1,0.5]];portConstraint=eastwest;fontSize=15;" vertex="1" parent="s-sF-N-EIKHxKrZ4D1PO-6">
          <mxGeometry y="154" width="200" height="76" as="geometry" />
        </mxCell>
        <mxCell id="s-sF-N-EIKHxKrZ4D1PO-20" value="" style="line;strokeWidth=1;rotatable=0;dashed=0;labelPosition=right;align=left;verticalAlign=middle;spacingTop=0;spacingLeft=6;points=[];portConstraint=eastwest;fontSize=15;" vertex="1" parent="s-sF-N-EIKHxKrZ4D1PO-6">
          <mxGeometry y="230" width="200" height="10" as="geometry" />
        </mxCell>
        <mxCell id="s-sF-N-EIKHxKrZ4D1PO-9" value="DELETE - Удаляет &#xa;пользователя по id" style="text;strokeColor=none;fillColor=none;spacingLeft=4;spacingRight=4;overflow=hidden;rotatable=0;points=[[0,0.5],[1,0.5]];portConstraint=eastwest;fontSize=15;" vertex="1" parent="s-sF-N-EIKHxKrZ4D1PO-6">
          <mxGeometry y="240" width="200" height="110" as="geometry" />
        </mxCell>
        <mxCell id="s-sF-N-EIKHxKrZ4D1PO-15" value="User" style="shape=umlFrame;whiteSpace=wrap;html=1;fontSize=15;fontColor=#FF0000;" vertex="1" parent="WIyWlLk6GJQsqaUBKTNV-1">
          <mxGeometry width="411" height="380" as="geometry" />
        </mxCell>
        <mxCell id="s-sF-N-EIKHxKrZ4D1PO-18" value="&lt;p style=&quot;margin: 0px ; margin-top: 4px ; text-align: center ; text-decoration: underline&quot;&gt;&lt;b&gt;User JSON args&lt;/b&gt;&lt;/p&gt;&lt;hr&gt;&lt;p style=&quot;margin: 0px ; margin-left: 8px&quot;&gt;&lt;font color=&quot;#000000&quot;&gt;name : str&lt;/font&gt;&lt;/p&gt;&lt;p style=&quot;margin: 0px ; margin-left: 8px&quot;&gt;&lt;font color=&quot;#000000&quot;&gt;surname : str&lt;br&gt;age: int&lt;/font&gt;&lt;/p&gt;&lt;p style=&quot;margin: 0px ; margin-left: 8px&quot;&gt;&lt;font color=&quot;#000000&quot;&gt;about_yourself: str (&lt;/font&gt;необязателен&lt;font color=&quot;#000000&quot;&gt;)&lt;/font&gt;&lt;/p&gt;&lt;p style=&quot;margin: 0px ; margin-left: 8px&quot;&gt;&lt;font color=&quot;#000000&quot;&gt;sex : int (&lt;/font&gt;1 - male or 2 - female&lt;font color=&quot;#000000&quot;&gt;)&lt;/font&gt;&lt;/p&gt;&lt;p style=&quot;margin: 0px ; margin-left: 8px&quot;&gt;&lt;font color=&quot;#000000&quot;&gt;password: str&lt;/font&gt;&lt;/p&gt;&lt;p style=&quot;margin: 0px ; margin-left: 8px&quot;&gt;&lt;font color=&quot;#000000&quot;&gt;email: str (&lt;/font&gt;уникальный&lt;font color=&quot;#000000&quot;&gt;)&lt;/font&gt;&lt;/p&gt;" style="verticalAlign=top;align=left;overflow=fill;fontSize=12;fontFamily=Helvetica;html=1;fontColor=#FF0000;" vertex="1" parent="WIyWlLk6GJQsqaUBKTNV-1">
          <mxGeometry x="201" y="238" width="210" height="142" as="geometry" />
        </mxCell>
      </root>
    </mxGraphModel>
  </diagram>
</mxfile>
